<?xml version="1.0" encoding="utf-8"?>
<!-- Generator: Adobe Illustrator 28.2.0, SVG Export Plug-In . SVG Version: 6.00 Build 0)  -->
<svg version="1.1" id="Layer_1" xmlns="http://www.w3.org/2000/svg" xmlns:xlink="http://www.w3.org/1999/xlink" x="0px" y="0px"
	 viewBox="0 0 1024 768" style="enable-background:new 0 0 1024 768;" xml:space="preserve">
<style type="text/css">
	.st0{fill:#E97C35;}
	.st1{fill:#004C48;}
</style>
<g>
	<g>
		<g>
			<path class="st0" d="M192.87,430.69c0,11.04-11.14,18.61-22.8,18.61c-14.31,0-22.8-6.34-22.8-15.23c0-6.54,3.99-9.61,8.49-9.61
				c0.82,0,1.74,0.1,2.56,0.31c-0.41,2.04-0.61,3.99-0.61,5.83c0,7.87,3.78,13.7,11.55,13.7c5.73,0,9.71-3.99,9.71-9.92
				c0-15.95-29.45-17.07-29.45-38.75c0-11.96,9.1-17.07,21.47-17.07c11.04,0,18.51,4.4,18.71,9.61v0.2c0,4.19-3.68,6.34-8.38,7.36
				c0.1-0.72,0.1-1.43,0.1-2.15c0-6.75-4.29-9.92-9.82-9.92c-5.32,0-8.69,3.07-8.69,7.98C162.91,406.05,192.87,409.63,192.87,430.69
				z"/>
			<path class="st0" d="M224.57,435.9c0,9.71,2.86,12.68,2.86,12.68h-20.14c0,0,2.86-2.97,2.86-12.68v-43.96
				c0-9.61-2.86-12.68-2.86-12.68h20.14c0,0-2.86,3.07-2.86,12.68V435.9z"/>
			<path class="st0" d="M265.67,379.26c17.89,0,26.07,15.54,26.07,34.66s-8.18,34.66-26.07,34.66h-21.78c0,0,2.86-2.97,2.86-12.68
				v-43.96c0-9.61-2.86-12.68-2.86-12.68H265.67z M265.67,443.57c7.98,0,10.94-13.29,10.94-29.65s-2.96-29.55-10.94-29.55h-4.5v59.2
				H265.67z"/>
			<path class="st0" d="M346.55,448.58h-40.49c0,0,2.86-2.97,2.86-12.68v-43.96c0-9.61-2.86-12.68-2.86-12.68h39.06l2.15,20.35
				c0,0-5.11-15.23-14.82-15.23h-9.1v26.99h5.32c9.71,0,11.96-8.59,11.96-8.59v22.29c0,0-2.25-8.59-11.96-8.59h-5.32v26.99h10.53
				c9.71,0,14.93-15.23,14.93-15.23L346.55,448.58z"/>
			<path class="st1" d="M409.63,435.9c0,9.71,2.86,12.68,2.86,12.68h-4.7c0,0-4.29,0-7.77-1.53c-3.58,1.74-7.46,2.25-10.63,2.25
				c-17.89,0-26.17-16.26-26.17-35.38c0-19.63,5.21-35.37,26.48-35.37c7.77,0,17.69,3.17,17.69,9.71v0.41
				c-0.2,4.29-3.99,6.75-8.59,7.46c0.1-0.72,0.2-1.43,0.2-2.04c0-6.24-4.6-10.43-8.89-10.43c-7.26,0-11.76,8.69-11.76,27.71
				c0,18.2,6.75,28.12,16.87,28.63v-15.95c0-9.61-7.16-12.68-7.16-12.68h24.44c0,0-2.86,3.07-2.86,12.68V435.9z"/>
			<path class="st1" d="M462.87,392.93c-2.07,0-4.18-0.26-6.31-0.77v37.4c0,11.66-2.35,14.72-6.74,14.72
				c-4.5,0-6.85-3.98-6.85-14.72v-37.4c-2.13,0.51-4.24,0.77-6.31,0.77c-3.01,0-5.73-0.53-8.11-1.37v38
				c0,11.75,7.97,19.73,21.27,19.73c13.19,0,21.16-7.98,21.16-19.73v-38C468.59,392.4,465.88,392.93,462.87,392.93z"/>
			<path class="st1" d="M518.94,448.58c0,0,0.61-0.92,0.61-3.58c0-1.94-0.31-4.91-1.53-9.1l-5.62-19.43h-5.32v19.43
				c0,9.71,2.86,12.68,2.86,12.68H489.9c0,0,2.76-2.97,2.86-12.47v-44.17c0-9.61-2.86-12.68-2.86-12.68h23.41
				c12.06,0,20.35,5.21,20.35,18.61c0,11.25-5.83,16.77-15.03,18.2l9.82,3.99l4.5,15.85c2.86,9.61,6.03,12.68,6.03,12.68H518.94z
				 M509.02,411.36c4.09,0,9.51-4.81,9.51-13.5c0-8.69-5.42-13.5-9.51-13.5h-1.94v26.99H509.02z"/>
			<path class="st1" d="M597.87,379.26c0,0-2.86,3.07-2.86,12.68v37.62c0,11.76-7.98,19.73-21.16,19.73
				c-13.29,0-21.27-7.98-21.27-19.73v-37.62c0-9.61-2.86-12.68-2.86-12.68h20.86c0,0-3.58,3.07-3.58,12.68v37.62
				c0,10.73,2.35,14.72,6.85,14.72c4.4,0,6.75-3.07,6.75-14.72v-37.62c0-9.61-2.86-12.68-2.86-12.68H597.87z"/>
			<path class="st1" d="M657.38,430.69c0,11.04-11.14,18.61-22.8,18.61c-14.31,0-22.8-6.34-22.8-15.23c0-6.54,3.99-9.61,8.49-9.61
				c0.82,0,1.74,0.1,2.56,0.31c-0.41,2.04-0.61,3.99-0.61,5.83c0,7.87,3.78,13.7,11.55,13.7c5.73,0,9.71-3.99,9.71-9.92
				c0-15.95-29.45-17.07-29.45-38.75c0-11.96,9.1-17.07,21.47-17.07c11.04,0,18.51,4.4,18.71,9.61v0.2c0,4.19-3.68,6.34-8.38,7.36
				c0.1-0.72,0.1-1.43,0.1-2.15c0-6.75-4.29-9.92-9.82-9.92c-5.32,0-8.69,3.07-8.69,7.98C627.42,406.05,657.38,409.63,657.38,430.69
				z"/>
		</g>
	</g>
	<g>
		<g>
			<path class="st1" d="M160.06,462.56l-3.88,15.5c-0.74,2.92,0.34,3.81,0.34,3.81h-6.92c0,0,1.51-0.89,2.25-3.81l3.88-15.5h-1.02
				c-2.92,0-5.81,5.44-5.81,5.44l2.37-6.98h14l-1.11,6.98c0,0-0.18-5.44-3.11-5.44H160.06z"/>
			<path class="st1" d="M182.92,461.02c0,0-1.08,0.92-1.81,3.82l-2.83,11.32c-0.86,3.54-3.85,5.94-7.84,5.94
				c-3.97,0-5.78-2.4-4.89-5.94l2.8-11.32c0.74-2.89,0.09-3.82,0.09-3.82h6.27c0,0-1.29,0.92-2.03,3.82l-2.8,11.32
				c-0.8,3.23-0.4,4.43,0.92,4.43c1.35,0,2.28-0.92,3.17-4.43l2.8-11.32c0.74-2.89,0.09-3.82,0.09-3.82H182.92z"/>
			<path class="st1" d="M189.44,481.88c0,0,0.28-0.28,0.46-1.08c0.15-0.58,0.28-1.47,0.21-2.74l-0.25-5.85h-1.6l-1.45,5.85
				c-0.74,2.92-0.09,3.81-0.09,3.81h-6.03c0,0,1.05-0.89,1.78-3.75l3.32-13.29c0.74-2.89,0.09-3.82,0.09-3.82h7.04
				c3.63,0,5.72,1.57,4.74,5.6c-0.86,3.38-3.01,5.04-5.91,5.48l2.68,1.2l0.15,4.77c0.12,2.89,0.86,3.81,0.86,3.81H189.44z
				 M189.22,470.68c1.26,0,3.26-1.45,3.91-4.06c0.65-2.61-0.62-4.06-1.88-4.06h-0.55l-2.03,8.12H189.22z"/>
			<path class="st1" d="M216.57,461.02c0,0-1.08,0.92-1.78,3.82l-4.25,17.04H209v-0.03l-4.43-16.83l-3.26,13.04
				c-0.71,2.92-0.09,3.81-0.09,3.81h-3.23c0,0,1.08-0.89,1.81-3.81l3.29-13.23c0.74-2.89,0.09-3.82,0.09-3.82h5.2l2.98,11.35
				l1.88-7.53c0.74-2.89,0.09-3.82,0.09-3.82H216.57z"/>
			<path class="st1" d="M244.38,461.02c0,0-1.11,0.83-2.92,3.82l-5.26,8.61l-1.14,4.61c-0.74,2.92-0.09,3.81-0.09,3.81h-6.03
				c0,0,1.08-0.89,1.81-3.81l1.2-4.77l-1.14-8.46c-0.43-2.8-1.32-3.82-1.32-3.82h6.43c0,0-0.21,0.25-0.34,0.86
				c-0.15,0.59-0.28,1.54-0.06,2.95l0.55,6.15l3.75-6.15c0.71-1.17,1.05-2,1.2-2.62c0.21-0.86,0.03-1.2,0.03-1.2H244.38z"/>
			<path class="st1" d="M257.94,471.45c-1.45,5.75-5.14,10.64-10.52,10.64c-5.38,0-6.64-4.89-5.2-10.64
				c1.45-5.75,5.14-10.65,10.52-10.65C258.1,460.81,259.39,465.7,257.94,471.45z M253.39,471.45c1.23-4.92,1.38-9.11-1.05-9.11
				c-2.4,0-4.34,4.18-5.57,9.11c-1.23,4.92-1.38,9.14,1.05,9.14C250.22,480.59,252.16,476.37,253.39,471.45z"/>
			<path class="st1" d="M277.48,461.02c0,0-1.08,0.92-1.81,3.82l-2.83,11.32c-0.86,3.54-3.85,5.94-7.84,5.94
				c-3.97,0-5.78-2.4-4.89-5.94l2.8-11.32c0.74-2.89,0.09-3.82,0.09-3.82h6.27c0,0-1.29,0.92-2.03,3.82l-2.8,11.32
				c-0.8,3.23-0.4,4.43,0.92,4.43c1.35,0,2.28-0.92,3.17-4.43l2.8-11.32c0.74-2.89,0.09-3.82,0.09-3.82H277.48z"/>
			<path class="st1" d="M284,481.88c0,0,0.28-0.28,0.46-1.08c0.15-0.58,0.28-1.47,0.21-2.74l-0.25-5.85h-1.6l-1.45,5.85
				c-0.74,2.92-0.09,3.81-0.09,3.81h-6.03c0,0,1.05-0.89,1.78-3.75l3.32-13.29c0.74-2.89,0.09-3.82,0.09-3.82h7.04
				c3.63,0,5.72,1.57,4.74,5.6c-0.86,3.38-3.01,5.04-5.91,5.48l2.68,1.2l0.15,4.77c0.12,2.89,0.86,3.81,0.86,3.81H284z
				 M283.78,470.68c1.26,0,3.26-1.45,3.91-4.06c0.65-2.61-0.62-4.06-1.88-4.06h-0.55l-2.03,8.12H283.78z"/>
			<path class="st1" d="M315.16,481.88h-12.21c0,0,1.08-0.89,1.81-3.81l3.29-13.23c0.71-2.89,0.09-3.82,0.09-3.82h11.75l-0.86,6.12
				c0,0-0.4-4.58-3.32-4.58h-2.77l-2.03,8.12h1.63c2.92,0,4.25-2.58,4.25-2.58l-1.66,6.71c0,0-0.03-2.58-2.95-2.58h-1.63l-2.03,8.12
				h3.2c2.92,0,5.6-4.58,5.6-4.58L315.16,481.88z"/>
			<path class="st1" d="M326.63,481.88c0,0,0.06-0.12,0.15-0.43c0.12-0.52,0.28-1.6-0.03-3.38l-0.68-3.88l-3.14,3.88
				c-1.66,2.03-2.09,3.08-2.21,3.53c-0.03,0.19-0.03,0.28-0.03,0.28h-3.23c0,0,1.32-0.89,3.72-3.81l4.61-5.66l-0.03-0.15l-1.26-7.41
				c-0.46-2.77-1.23-3.82-1.23-3.82h6.06c0,0-0.09,0.15-0.15,0.49c-0.15,0.55-0.28,1.6,0,3.32l0.49,2.86l0.09,0.68l2.58-3.54
				c1.32-1.81,1.75-2.86,1.88-3.38c0.09-0.31,0.06-0.43,0.06-0.43h3.23c0,0-1.29,0.89-3.48,3.82l-3.94,5.35l1.35,7.87
				c0.43,2.77,1.23,3.81,1.23,3.81H326.63z"/>
			<path class="st1" d="M346.94,461.02c3.66,0,5.75,1.57,4.74,5.6c-1.02,4.03-3.88,5.6-7.5,5.6h-1.88l-1.45,5.85
				c-0.74,2.92-0.09,3.81-0.09,3.81h-6.06c0,0,1.08-0.89,1.78-3.75l3.32-13.29c0.74-2.89,0.09-3.82,0.09-3.82H346.94z
				 M343.24,470.68c1.23,0,3.23-1.45,3.88-4.06c0.65-2.61-0.62-4.06-1.85-4.06h-0.58l-2.03,8.12H343.24z"/>
			<path class="st1" d="M362.47,481.88h-12.21c0,0,1.08-0.89,1.81-3.81l3.29-13.23c0.71-2.89,0.09-3.82,0.09-3.82h11.75l-0.86,6.12
				c0,0-0.4-4.58-3.32-4.58h-2.77l-2.03,8.12h1.63c2.92,0,4.25-2.58,4.25-2.58l-1.66,6.71c0,0-0.03-2.58-2.95-2.58h-1.63l-2.03,8.12
				h3.2c2.92,0,5.6-4.58,5.6-4.58L362.47,481.88z"/>
			<path class="st1" d="M374.93,481.88c0,0,0.28-0.28,0.46-1.08c0.15-0.58,0.28-1.47,0.21-2.74l-0.25-5.85h-1.6l-1.45,5.85
				c-0.74,2.92-0.09,3.81-0.09,3.81h-6.03c0,0,1.05-0.89,1.78-3.75l3.32-13.29c0.74-2.89,0.09-3.82,0.09-3.82h7.04
				c3.63,0,5.72,1.57,4.74,5.6c-0.86,3.38-3.01,5.04-5.91,5.48l2.68,1.2l0.15,4.77c0.12,2.89,0.86,3.81,0.86,3.81H374.93z
				 M374.71,470.68c1.26,0,3.26-1.45,3.91-4.06c0.65-2.61-0.62-4.06-1.88-4.06h-0.55l-2.03,8.12H374.71z"/>
			<path class="st1" d="M396.71,462.56l-3.88,15.5c-0.74,2.92,0.34,3.81,0.34,3.81h-6.92c0,0,1.51-0.89,2.25-3.81l3.88-15.5h-1.02
				c-2.92,0-5.81,5.44-5.81,5.44l2.37-6.98h14l-1.11,6.98c0,0-0.18-5.44-3.11-5.44H396.71z"/>
			<path class="st1" d="M406.03,478.07c-0.74,2.92-0.09,3.81-0.09,3.81h-6.06c0,0,1.08-0.89,1.81-3.81l3.29-13.23
				c0.74-2.89,0.09-3.82,0.09-3.82h6.06c0,0-1.08,0.92-1.81,3.82L406.03,478.07z"/>
			<path class="st1" d="M423.56,476.5c-0.83,3.32-4.77,5.6-8.27,5.6c-4.31,0-6.37-1.91-5.72-4.58c0.49-1.97,1.94-2.89,3.29-2.89
				c0.25,0,0.49,0.03,0.74,0.09c-0.28,0.62-0.49,1.2-0.65,1.75c-0.58,2.37,0.15,4.12,2.46,4.12c1.72,0,3.23-1.2,3.69-2.98
				c1.2-4.8-7.6-5.14-5.97-11.66c0.89-3.6,4.03-5.14,7.75-5.14c3.32,0,5.23,1.32,4.89,2.89v0.06c-0.31,1.26-1.57,1.91-3.08,2.21
				c0.09-0.22,0.15-0.43,0.21-0.65c0.49-2.03-0.58-2.98-2.25-2.98c-1.6,0-2.83,0.92-3.2,2.4
				C416.39,469.08,425.13,470.16,423.56,476.5z"/>
			<path class="st1" d="M436.91,481.88H424.7c0,0,1.08-0.89,1.81-3.81l3.29-13.23c0.71-2.89,0.09-3.82,0.09-3.82h11.75l-0.86,6.12
				c0,0-0.4-4.58-3.32-4.58h-2.77l-2.03,8.12h1.63c2.92,0,4.25-2.58,4.25-2.58l-1.66,6.71c0,0-0.03-2.58-2.95-2.58h-1.63l-2.03,8.12
				h3.2c2.92,0,5.6-4.58,5.6-4.58L436.91,481.88z"/>
			<path class="st1" d="M456.63,478.07c-0.74,2.92-0.09,3.81-0.09,3.81h-6.06c0,0,1.08-0.89,1.81-3.81l3.29-13.23
				c0.74-2.89,0.09-3.82,0.09-3.82h6.06c0,0-1.08,0.92-1.81,3.82L456.63,478.07z"/>
			<path class="st1" d="M477.58,461.02c0,0-1.08,0.92-1.78,3.82l-4.25,17.04h-1.54v-0.03l-4.43-16.83l-3.26,13.04
				c-0.71,2.92-0.09,3.81-0.09,3.81H459c0,0,1.08-0.89,1.81-3.81l3.29-13.23c0.74-2.89,0.09-3.82,0.09-3.82h5.2l2.98,11.35
				l1.88-7.53c0.74-2.89,0.09-3.82,0.09-3.82H477.58z"/>
			<path class="st1" d="M489.51,462.56l-3.88,15.5c-0.74,2.92,0.34,3.81,0.34,3.81h-6.92c0,0,1.51-0.89,2.25-3.81l3.88-15.5h-1.02
				c-2.92,0-5.81,5.44-5.81,5.44l2.37-6.98h14l-1.11,6.98c0,0-0.18-5.44-3.11-5.44H489.51z"/>
			<path class="st1" d="M510.58,471.45c-1.45,5.75-5.14,10.64-10.52,10.64c-5.38,0-6.64-4.89-5.2-10.64
				c1.45-5.75,5.14-10.65,10.52-10.65C510.74,460.81,512.03,465.7,510.58,471.45z M506.03,471.45c1.23-4.92,1.38-9.11-1.05-9.11
				c-2.4,0-4.34,4.18-5.57,9.11c-1.23,4.92-1.38,9.14,1.05,9.14C502.86,480.59,504.8,476.37,506.03,471.45z"/>
			<path class="st1" d="M527.04,478.07c-0.74,2.92-0.09,3.81-0.09,3.81h-6.06c0,0,1.08-0.89,1.81-3.81l3.29-13.23
				c0.74-2.89,0.09-3.82,0.09-3.82h6.06c0,0-1.08,0.92-1.81,3.82L527.04,478.07z"/>
			<path class="st1" d="M547.99,461.02c0,0-1.08,0.92-1.78,3.82l-4.25,17.04h-1.54v-0.03l-4.43-16.83l-3.26,13.04
				c-0.71,2.92-0.09,3.81-0.09,3.81h-3.23c0,0,1.08-0.89,1.81-3.81l3.29-13.23c0.74-2.89,0.09-3.82,0.09-3.82h5.2l2.98,11.35
				l1.88-7.53c0.74-2.89,0.09-3.82,0.09-3.82H547.99z"/>
			<path class="st1" d="M560.26,477.2c-1.48,4.03-4.98,4.89-7.23,4.89c-5.35,0-6.61-4.89-5.17-10.64
				c1.45-5.91,4.21-10.65,10.58-10.65c2.37,0,5.11,0.96,4.61,2.92l-0.03,0.12c-0.37,1.29-1.69,2.03-3.14,2.25
				c0.09-0.22,0.15-0.4,0.18-0.62c0.49-1.88-0.58-3.14-1.91-3.14c-2.15,0-4.15,2.61-5.57,8.34c-1.41,5.6-0.03,8.61,3.14,8.61
				C557.71,479.29,558.72,478.8,560.26,477.2z"/>
			<path class="st1" d="M578.84,471.45c-1.45,5.75-5.14,10.64-10.52,10.64c-5.38,0-6.64-4.89-5.2-10.64
				c1.45-5.75,5.14-10.65,10.52-10.65C578.99,460.81,580.29,465.7,578.84,471.45z M574.29,471.45c1.23-4.92,1.38-9.11-1.05-9.11
				c-2.4,0-4.34,4.18-5.57,9.11c-1.23,4.92-1.38,9.14,1.05,9.14C571.12,480.59,573.06,476.37,574.29,471.45z"/>
			<path class="st1" d="M599.27,478.07c-0.74,2.92-0.09,3.81-0.09,3.81h-6.06c0,0,1.08-0.89,1.81-3.81l3.26-13.07l-5.54,8.3
				l-3.51,5.23l-0.46-1.75l-3.11-11.75l-3.23,13.04c-0.74,2.92-0.09,3.81-0.09,3.81h-3.23c0,0,1.08-0.89,1.78-3.81l3.32-13.23
				c0.71-2.89,0.06-3.82,0.06-3.82h5.2l2.8,10.52l6.98-10.49v-0.03h5.2c0,0-1.11,0.92-1.82,3.82L599.27,478.07z"/>
			<path class="st1" d="M614.52,481.88h-12.21c0,0,1.08-0.89,1.81-3.81l3.29-13.23c0.71-2.89,0.09-3.82,0.09-3.82h11.75l-0.86,6.12
				c0,0-0.4-4.58-3.32-4.58h-2.77l-2.03,8.12h1.63c2.92,0,4.24-2.58,4.24-2.58l-1.66,6.71c0,0-0.03-2.58-2.95-2.58h-1.63l-2.03,8.12
				h3.2c2.92,0,5.6-4.58,5.6-4.58L614.52,481.88z"/>
			<path class="st1" d="M643.16,471.45c-1.45,5.75-5.14,10.64-10.52,10.64c-5.38,0-6.64-4.89-5.2-10.64
				c1.45-5.75,5.14-10.65,10.52-10.65C643.32,460.81,644.61,465.7,643.16,471.45z M638.61,471.45c1.23-4.92,1.38-9.11-1.05-9.11
				c-2.4,0-4.34,4.18-5.57,9.11c-1.23,4.92-1.38,9.14,1.05,9.14C635.44,480.59,637.38,476.37,638.61,471.45z"/>
			<path class="st1" d="M661.84,461.02c0,0-1.08,0.92-1.78,3.82l-4.25,17.04h-1.54v-0.03l-4.43-16.83l-3.26,13.04
				c-0.71,2.92-0.09,3.81-0.09,3.81h-3.23c0,0,1.08-0.89,1.81-3.81l3.29-13.23c0.74-2.89,0.09-3.82,0.09-3.82h5.2l2.98,11.35
				l1.88-7.53c0.74-2.89,0.09-3.82,0.09-3.82H661.84z"/>
			<path class="st1" d="M671.89,481.88h-12.21c0,0,1.08-0.89,1.81-3.81l3.29-13.23c0.71-2.89,0.09-3.82,0.09-3.82h11.75l-0.86,6.12
				c0,0-0.4-4.58-3.32-4.58h-2.77l-2.03,8.12h1.63c2.92,0,4.25-2.58,4.25-2.58l-1.66,6.71c0,0-0.03-2.58-2.95-2.58h-1.63l-2.03,8.12
				h3.2c2.92,0,5.6-4.58,5.6-4.58L671.89,481.88z"/>
			<path class="st1" d="M700.38,478.07c-0.74,2.92-0.09,3.81-0.09,3.81h-1.42c0,0-1.29,0-2.22-0.46c-1.2,0.52-2.43,0.68-3.38,0.68
				c-5.38,0-6.64-4.89-5.2-10.64c1.45-5.91,4.21-10.65,10.61-10.65c2.34,0,5.08,0.96,4.58,2.92l-0.03,0.12
				c-0.37,1.29-1.69,2.03-3.14,2.25c0.09-0.22,0.15-0.43,0.21-0.62c0.46-1.88-0.58-3.14-1.91-3.14c-2.18,0-4.18,2.61-5.6,8.34
				c-1.38,5.47-0.09,8.46,2.92,8.61l1.2-4.8c0.71-2.89-1.2-3.81-1.2-3.81h7.35c0,0-1.11,0.92-1.81,3.81L700.38,478.07z"/>
			<path class="st1" d="M709.3,478.07c-0.74,2.92-0.09,3.81-0.09,3.81h-6.06c0,0,1.08-0.89,1.81-3.81l3.29-13.23
				c0.74-2.89,0.09-3.82,0.09-3.82h6.06c0,0-1.08,0.92-1.81,3.82L709.3,478.07z"/>
			<path class="st1" d="M727.08,478.07c-0.74,2.92-0.09,3.81-0.09,3.81h-1.42c0,0-1.29,0-2.22-0.46c-1.2,0.52-2.43,0.68-3.38,0.68
				c-5.38,0-6.64-4.89-5.2-10.64c1.45-5.91,4.21-10.65,10.61-10.65c2.34,0,5.08,0.96,4.58,2.92l-0.03,0.12
				c-0.37,1.29-1.69,2.03-3.14,2.25c0.09-0.22,0.15-0.43,0.21-0.62c0.46-1.88-0.58-3.14-1.91-3.14c-2.18,0-4.18,2.61-5.6,8.34
				c-1.38,5.47-0.09,8.46,2.92,8.61l1.2-4.8c0.71-2.89-1.2-3.81-1.2-3.81h7.35c0,0-1.11,0.92-1.81,3.81L727.08,478.07z"/>
			<path class="st1" d="M754.55,478.07c0.15,2.98,0.8,3.81,0.8,3.81h-6.06c0,0,0.31-0.28,0.52-1.14c0.15-0.59,0.25-1.45,0.18-2.68
				l-0.06-1.02h-5.08l-0.55,1.02c-0.58,1.07-0.89,1.91-1.05,2.49c-0.25,0.92-0.09,1.32-0.09,1.32h-3.26c0,0,1.17-0.83,2.8-3.81
				l6.68-12.06l2.74-4.98h1.51v0.15L754.55,478.07z M749.87,475.51l-0.37-6.86l-3.81,6.86H749.87z"/>
			<path class="st1" d="M768.21,462.56l-3.88,15.5c-0.74,2.92,0.34,3.81,0.34,3.81h-6.92c0,0,1.51-0.89,2.25-3.81l3.88-15.5h-1.02
				c-2.92,0-5.81,5.44-5.81,5.44l2.37-6.98h14l-1.11,6.98c0,0-0.18-5.44-3.11-5.44H768.21z"/>
			<path class="st1" d="M796.41,478.07c0.15,2.98,0.8,3.81,0.8,3.81h-6.06c0,0,0.31-0.28,0.52-1.14c0.15-0.59,0.25-1.45,0.18-2.68
				l-0.06-1.02h-5.08l-0.55,1.02c-0.58,1.07-0.89,1.91-1.05,2.49c-0.25,0.92-0.09,1.32-0.09,1.32h-3.26c0,0,1.17-0.83,2.8-3.81
				l6.68-12.06l2.74-4.98h1.51v0.15L796.41,478.07z M791.74,475.51l-0.37-6.86l-3.81,6.86H791.74z"/>
			<path class="st1" d="M824.78,462.56l-3.88,15.5c-0.74,2.92,0.34,3.81,0.34,3.81h-6.92c0,0,1.51-0.89,2.25-3.81l3.88-15.5h-1.02
				c-2.92,0-5.81,5.44-5.81,5.44l2.37-6.98h14l-1.11,6.98c0,0-0.18-5.44-3.11-5.44H824.78z"/>
			<path class="st1" d="M834.1,478.07c-0.74,2.92-0.09,3.81-0.09,3.81h-6.06c0,0,1.08-0.89,1.81-3.81l3.29-13.23
				c0.74-2.89,0.09-3.82,0.09-3.82h6.06c0,0-1.08,0.92-1.81,3.82L834.1,478.07z"/>
			<path class="st1" d="M856.74,478.07c-0.74,2.92-0.09,3.81-0.09,3.81h-6.06c0,0,1.08-0.89,1.81-3.81l3.26-13.07l-5.54,8.3
				l-3.51,5.23l-0.46-1.75l-3.11-11.75l-3.23,13.04c-0.74,2.92-0.09,3.81-0.09,3.81h-3.23c0,0,1.08-0.89,1.78-3.81l3.32-13.23
				c0.71-2.89,0.06-3.82,0.06-3.82h5.2l2.8,10.52l6.98-10.49v-0.03h5.2c0,0-1.11,0.92-1.82,3.82L856.74,478.07z"/>
			<path class="st1" d="M871.99,481.88h-12.21c0,0,1.08-0.89,1.81-3.81l3.29-13.23c0.71-2.89,0.09-3.82,0.09-3.82h11.75l-0.86,6.12
				c0,0-0.4-4.58-3.32-4.58h-2.77l-2.03,8.12h1.63c2.92,0,4.25-2.58,4.25-2.58l-1.66,6.71c0,0-0.03-2.58-2.95-2.58h-1.63l-2.03,8.12
				h3.2c2.92,0,5.6-4.58,5.6-4.58L871.99,481.88z"/>
		</g>
	</g>
	<g>
		<path class="st1" d="M670.58,449.68c-2.98,0-5.44-2.46-5.44-5.55c0-2.98,2.47-5.44,5.44-5.44c3.08,0,5.55,2.46,5.55,5.44
			C676.12,447.21,673.66,449.68,670.58,449.68z"/>
		<path class="st1" d="M734.67,433.65c-1.54,13.46-12.53,16.33-20.03,16.33c-17.87,0-26.19-16.33-26.19-35.54
			c0-19.72,5.24-35.54,26.5-35.54c7.91,0,17.87,3.18,17.87,9.76v0.41c-0.21,4.31-4.01,6.78-8.63,7.5c0.1-0.72,0.21-1.34,0.21-2.05
			c0-6.27-4.62-10.48-9.04-10.48c-7.19,0-11.71,8.73-11.71,27.84c0,18.7,7.09,28.76,17.67,28.76
			C727.89,440.64,730.87,438.99,734.67,433.65z"/>
		<path class="st1" d="M795.99,414.44c0,19.21-8.22,35.54-26.19,35.54c-17.98,0-26.3-16.33-26.3-35.54
			c0-19.21,8.32-35.54,26.3-35.54C787.78,378.9,795.99,395.23,795.99,414.44z M780.79,414.44c0-16.43-2.98-30.41-10.99-30.41
			c-8.01,0-11.09,13.97-11.09,30.41c0,16.43,3.08,30.51,11.09,30.51C777.81,444.95,780.79,430.88,780.79,414.44z"/>
		<path class="st1" d="M873.85,436.53c0,9.76,2.88,12.74,2.88,12.74h-20.24c0,0,2.88-2.98,2.88-12.74v-43.65l-11.61,27.73
			l-7.29,17.46l-2.98-5.85l-20.13-39.24v43.55c0,9.76,2.88,12.74,2.88,12.74h-10.89c0,0,2.88-2.98,2.88-12.74h0.1v-44.17h-0.1
			c0-9.66-2.88-12.74-2.88-12.74h17.36l18.08,35.13l14.58-35.03v-0.1h17.36c0,0-2.88,3.08-2.88,12.74V436.53z"/>
	</g>
	<g>
		<g>
			<g>
				<path class="st1" d="M468.44,332.46c-2.83,3.55-6.76,6.1-10.79,8.66c-2.58,1.67-5.22,3.26-7.65,5.16
					c-27.52,8.75-27.61,29.65-27.61,29.92c-0.92-0.75-1.79-1.5-2.62-2.25c2.69-24.17,27.14-38.41,27.94-38.87
					c-21.54,10.69-28.86,25.92-31.34,35.52c-1.11-1.19-2.12-2.39-3.05-3.58c4.11-26.55,33.49-37.75,35.39-38.45
					c-26.99,7.92-35.89,25.38-38.66,33.63c-1.19-2.01-2.16-4-2.94-5.95c10.27-29.9,46.68-36.63,48.97-37.03
					c-31.69,3.33-45.77,20.47-51.12,29.68c-0.53-2.73-0.75-5.29-0.76-7.6c16.3-27.19,54.05-26.53,54.05-26.53
					c-28.42-2.07-44.95,9.2-53.07,17.44c0.4-1.73,0.77-2.71,0.77-2.71c7.75-12.85,24.34-21.73,43.56-21.73
					c8.07,0,16.34,1.63,23.56,4.45C473.99,319.34,472.94,326.77,468.44,332.46z"/>
				<path class="st0" d="M493.94,351.26c-11.32-8.69-22.29-8.71-22.39-8.71c9.54,2.19,16.51,7.39,21.23,12.32
					c-0.69,1.83-1.47,3.54-2.33,5.13c-9.6-12.21-21.4-14.73-21.86-14.82c10.07,4.53,16.19,12.16,19.72,18.39
					c-1.12,1.69-2.29,3.22-3.43,4.55c-6.32-13.42-16.6-18.53-17-18.73c8.22,6.55,12.27,14.94,14.25,21.69
					c-2.91,2.89-5.15,4.37-5.15,4.37c-2.12-14.32-14.76-22.99-21.96-26.82c5.34-4.6,11.72-8.45,15.69-14.52
					c4.15-6.38,4.68-14.27,3.11-21.6c10.73,4.35,19,11.34,20.62,19.48C495.9,339.3,495.43,345.74,493.94,351.26z"/>
			</g>
			<g>
				<path class="st1" d="M449.77,285.91c-2.83,3.38-4.53,7.74-4.53,12.49c0,4.75,1.7,9.11,4.53,12.49
					c2.83-3.38,4.53-7.74,4.53-12.49C454.3,293.64,452.59,289.29,449.77,285.91z M447.75,300.91c0-2.28,0.76-4.37,2.01-5.99
					c1.26,1.62,2.02,3.71,2.02,5.99c0,2.28-0.76,4.38-2.02,6C448.51,305.29,447.75,303.2,447.75,300.91z"/>
				<path class="st0" d="M451.79,300.91c0,2.28-0.76,4.38-2.02,6c-1.26-1.62-2.01-3.72-2.01-6c0-2.28,0.76-4.37,2.01-5.99
					C451.03,296.54,451.79,298.63,451.79,300.91z"/>
			</g>
		</g>
		<g>
			<g>
				<path class="st1" d="M443.4,365.67c0,0.44-0.07,0.87-0.2,1.29c-0.03-2.46-2.25-4.45-4.99-4.45s-4.96,1.99-4.99,4.45
					c-0.13-0.41-0.2-0.84-0.2-1.29c0-2.59,2.32-4.68,5.19-4.68C441.07,360.99,443.4,363.08,443.4,365.67z"/>
				<path class="st1" d="M466.52,365.67c0,0.44-0.07,0.87-0.2,1.29c-0.03-2.46-2.25-4.45-4.99-4.45s-4.96,1.99-4.99,4.45
					c-0.13-0.41-0.2-0.84-0.2-1.29c0-2.59,2.32-4.68,5.19-4.68S466.52,363.08,466.52,365.67z"/>
			</g>
			<g>
				<path class="st1" d="M454.41,394.07c-1.11,3.51-3.42,5.63-4.41,7.79c-0.1,0.18-0.17,0.37-0.24,0.57
					c-0.07-0.2-0.14-0.39-0.23-0.57c-1-2.17-3.3-4.29-4.4-7.79c-0.97-3.08,1.01-4.53,2.27-5.12c-0.34,1.4-0.5,3.65,0.71,6.26
					c-0.09-0.29-1.2-3.92,0.18-6.59c0.03-0.01,0.04-0.01,0.04-0.01l1.04-0.25c-0.27,1.4-0.3,3.47,0.8,5.84
					c-0.08-0.26-1.01-3.32-0.12-5.88l1.17,0.3c0,0,0.01,0.01,0.04,0.01c1.38,2.68,0.28,6.31,0.19,6.59
					c1.21-2.61,1.04-4.86,0.71-6.26C453.41,389.55,455.39,391,454.41,394.07z"/>
				<g>
					<g>
						<g>
							<g>
								<path class="st1" d="M464.49,381.19c-5.44-4.27-9.97-6.12-13.57-3.77c-0.46,0.3-0.84,0.64-1.14,1
									c-2.03,2.4-0.69,5.7-0.69,5.7c0.18,0.44,0.42,0.86,0.69,1.26c2.21,3.19,7.04,5.02,7.04,5.02
									c15.97,3.96,25.27-8.77,25.52-9.12C479.65,384.12,469.93,385.46,464.49,381.19z M465.7,388.82
									c-7.36,0.39-13.55-2.37-13.83-6.18c-0.05-0.67,0.09-1.33,0.39-1.96c-0.02,0.17-0.02,0.33,0,0.5
									c0.31,4.25,7.22,7.35,15.43,6.9c1.83-0.1,3.57-0.36,5.16-0.75C470.81,388.13,468.36,388.67,465.7,388.82z M468.02,386.83
									c-7.36,0.39-13.55-2.38-13.83-6.19c-0.05-0.67,0.09-1.32,0.39-1.96c-0.02,0.17-0.02,0.34,0,0.51
									c0.31,4.25,7.22,7.34,15.43,6.9c1.83-0.1,3.57-0.36,5.16-0.76C473.14,386.15,470.68,386.69,468.02,386.83z"/>
							</g>
						</g>
						<g>
							<g>
								<path class="st1" d="M449.77,378.41c-0.3-0.36-0.68-0.69-1.14-1c-3.6-2.34-8.12-0.5-13.57,3.77
									c-5.44,4.27-15.15,2.93-17.84,0.09c0.25,0.35,9.56,13.08,25.52,9.12c0,0,4.83-1.83,7.04-5.02c0.28-0.4,0.52-0.82,0.7-1.26
									C450.47,384.12,451.8,380.81,449.77,378.41z M429.48,386.1c8.21,0.44,15.12-2.66,15.43-6.9c0.01-0.17,0.01-0.34,0-0.51
									c0.3,0.63,0.44,1.29,0.39,1.96c-0.28,3.81-6.47,6.58-13.83,6.19c-2.67-0.14-5.12-0.68-7.15-1.49
									C425.92,385.74,427.64,386,429.48,386.1z M447.62,382.63c-0.28,3.81-6.47,6.57-13.83,6.18c-2.67-0.14-5.12-0.68-7.16-1.48
									c1.6,0.39,3.33,0.65,5.16,0.75c8.21,0.44,15.12-2.65,15.43-6.9c0.01-0.17,0.01-0.33,0-0.5
									C447.53,381.3,447.67,381.96,447.62,382.63z"/>
							</g>
						</g>
					</g>
					<path class="st0" d="M454.46,374.5c0,2.59-2.09,4.69-4.68,4.69c-2.59,0-4.69-2.1-4.69-4.69c0-0.44,0.06-0.87,0.18-1.28
						c0.56,1.97,2.36,3.41,4.51,3.41c2.15,0,3.95-1.44,4.5-3.41C454.4,373.63,454.46,374.05,454.46,374.5z"/>
				</g>
			</g>
		</g>
	</g>
</g>
</svg>
